<?xml version="1.0" encoding="utf-8"?>
<!-- Generator: Adobe Illustrator 26.4.1, SVG Export Plug-In . SVG Version: 6.00 Build 0)  -->
<svg version="1.1" id="Layer_1" xmlns="http://www.w3.org/2000/svg" xmlns:xlink="http://www.w3.org/1999/xlink" x="0px" y="0px"
	 viewBox="0 0 16 16" style="enable-background:new 0 0 16 16;" xml:space="preserve">
<style type="text/css">
	.st0{fill:#FFFFFF;}
</style>
<path class="st0" d="M5,6h2v2H5V6z M8,6h2v2H8V6z M11,6h2v2h-2V6z M2,12h2v2H2V12z M5,12h2v2H5V12z M8,12h2v2H8V12z M5,9h2v2H5V9z
	 M8,9h2v2H8V9z M11,9h2v2h-2V9z M2,9h2v2H2V9z M13,0v1h-2V0H4v1H2V0H0v16h15V0H13z M14,15H1V4h13V15z"/>
</svg>
