<?xml version="1.0" encoding="utf-8"?>
<!-- Generator: Adobe Illustrator 26.4.1, SVG Export Plug-In . SVG Version: 6.00 Build 0)  -->
<svg version="1.1" id="Layer_1" xmlns="http://www.w3.org/2000/svg" xmlns:xlink="http://www.w3.org/1999/xlink" x="0px" y="0px"
	 viewBox="0 0 16 16" style="enable-background:new 0 0 16 16;" xml:space="preserve">
<style type="text/css">
	.st0{fill:#FFFFFF;}
</style>
<path class="st0" d="M14.6,9.5c-0.8-1.5-0.3-3.3,1.1-4.2l-1.6-2.7c-0.4,0.3-1,0.4-1.5,0.4c-1.7,0-3-1.4-3-3.1H6.4
	c0,0.5-0.1,1.1-0.4,1.5C5.2,3,3.3,3.5,1.9,2.6L0.3,5.4C0.7,5.6,1.1,6,1.4,6.5c0.8,1.5,0.3,3.3-1.1,4.2l1.6,2.7
	c0.4-0.3,1-0.4,1.5-0.4c1.7,0,3,1.4,3,3h3.1c0-0.5,0.1-1,0.4-1.5c0.8-1.5,2.7-1.9,4.2-1.1l1.6-2.7C15.3,10.4,14.9,10,14.6,9.5z
	 M8,11.2c-1.8,0-3.2-1.4-3.2-3.2S6.2,4.8,8,4.8c1.8,0,3.2,1.4,3.2,3.2S9.8,11.2,8,11.2z"/>
</svg>
